<mxfile host="Electron" modified="2024-02-29T12:23:00.071Z" agent="Mozilla/5.0 (Windows NT 10.0; Win64; x64) AppleWebKit/537.36 (KHTML, like Gecko) draw.io/23.1.5 Chrome/120.0.6099.109 Electron/28.1.0 Safari/537.36" etag="wiwaOib720lrzpZfGwSz" version="23.1.5" type="device">
  <diagram name="第 1 页" id="qWkUvlP43VdgsF52ATGZ">
    <mxGraphModel dx="649" dy="903" grid="1" gridSize="10" guides="1" tooltips="1" connect="1" arrows="1" fold="1" page="1" pageScale="1" pageWidth="827" pageHeight="1169" math="0" shadow="0">
      <root>
        <mxCell id="0" />
        <mxCell id="1" parent="0" />
        <mxCell id="tHz8QDxKs_5TUjwtGXgG-1" value="" style="ellipse;whiteSpace=wrap;html=1;aspect=fixed;" vertex="1" parent="1">
          <mxGeometry x="130" y="120" width="50" height="50" as="geometry" />
        </mxCell>
        <mxCell id="tHz8QDxKs_5TUjwtGXgG-2" value="" style="ellipse;whiteSpace=wrap;html=1;aspect=fixed;direction=south;" vertex="1" parent="1">
          <mxGeometry x="80" y="200" width="50" height="50" as="geometry" />
        </mxCell>
        <mxCell id="tHz8QDxKs_5TUjwtGXgG-3" value="" style="ellipse;whiteSpace=wrap;html=1;aspect=fixed;" vertex="1" parent="1">
          <mxGeometry x="180" y="200" width="50" height="50" as="geometry" />
        </mxCell>
        <mxCell id="tHz8QDxKs_5TUjwtGXgG-7" value="" style="endArrow=none;html=1;rounded=0;" edge="1" parent="1" source="tHz8QDxKs_5TUjwtGXgG-2">
          <mxGeometry width="50" height="50" relative="1" as="geometry">
            <mxPoint x="100" y="220" as="sourcePoint" />
            <mxPoint x="150" y="170" as="targetPoint" />
          </mxGeometry>
        </mxCell>
        <mxCell id="tHz8QDxKs_5TUjwtGXgG-8" value="" style="endArrow=none;html=1;rounded=0;entryX=0.5;entryY=1;entryDx=0;entryDy=0;" edge="1" parent="1" source="tHz8QDxKs_5TUjwtGXgG-3" target="tHz8QDxKs_5TUjwtGXgG-1">
          <mxGeometry width="50" height="50" relative="1" as="geometry">
            <mxPoint x="180" y="210" as="sourcePoint" />
            <mxPoint x="230" y="160" as="targetPoint" />
          </mxGeometry>
        </mxCell>
        <mxCell id="tHz8QDxKs_5TUjwtGXgG-10" value="" style="endArrow=none;html=1;rounded=0;entryX=1;entryY=0;entryDx=0;entryDy=0;" edge="1" parent="1" target="tHz8QDxKs_5TUjwtGXgG-2">
          <mxGeometry width="50" height="50" relative="1" as="geometry">
            <mxPoint x="140" y="290" as="sourcePoint" />
            <mxPoint x="170" y="250" as="targetPoint" />
          </mxGeometry>
        </mxCell>
        <mxCell id="tHz8QDxKs_5TUjwtGXgG-11" value="" style="ellipse;whiteSpace=wrap;html=1;aspect=fixed;" vertex="1" parent="1">
          <mxGeometry x="40" y="280" width="50" height="50" as="geometry" />
        </mxCell>
        <mxCell id="tHz8QDxKs_5TUjwtGXgG-12" value="" style="ellipse;whiteSpace=wrap;html=1;aspect=fixed;" vertex="1" parent="1">
          <mxGeometry x="110" y="280" width="50" height="50" as="geometry" />
        </mxCell>
        <mxCell id="tHz8QDxKs_5TUjwtGXgG-13" value="" style="endArrow=none;html=1;rounded=0;entryX=1;entryY=1;entryDx=0;entryDy=0;" edge="1" parent="1" target="tHz8QDxKs_5TUjwtGXgG-2">
          <mxGeometry width="50" height="50" relative="1" as="geometry">
            <mxPoint x="70" y="280" as="sourcePoint" />
            <mxPoint x="100" y="250" as="targetPoint" />
          </mxGeometry>
        </mxCell>
        <mxCell id="tHz8QDxKs_5TUjwtGXgG-14" value="任何一颗二叉树三个部分：&lt;br&gt;1.根节点&lt;br&gt;2.左子树" style="text;html=1;align=center;verticalAlign=middle;whiteSpace=wrap;rounded=0;fillColor=#d5e8d4;strokeColor=#82b366;" vertex="1" parent="1">
          <mxGeometry x="15" y="40" width="210" height="70" as="geometry" />
        </mxCell>
        <mxCell id="tHz8QDxKs_5TUjwtGXgG-15" value="3.右子树" style="text;html=1;align=center;verticalAlign=middle;whiteSpace=wrap;rounded=0;" vertex="1" parent="1">
          <mxGeometry x="165" y="60" width="60" height="30" as="geometry" />
        </mxCell>
        <mxCell id="tHz8QDxKs_5TUjwtGXgG-16" value="A" style="text;html=1;align=center;verticalAlign=middle;whiteSpace=wrap;rounded=0;" vertex="1" parent="1">
          <mxGeometry x="125" y="130" width="60" height="30" as="geometry" />
        </mxCell>
        <mxCell id="tHz8QDxKs_5TUjwtGXgG-17" value="B" style="text;html=1;align=center;verticalAlign=middle;whiteSpace=wrap;rounded=0;" vertex="1" parent="1">
          <mxGeometry x="75" y="210" width="60" height="30" as="geometry" />
        </mxCell>
        <mxCell id="tHz8QDxKs_5TUjwtGXgG-18" value="C" style="text;html=1;align=center;verticalAlign=middle;whiteSpace=wrap;rounded=0;" vertex="1" parent="1">
          <mxGeometry x="175" y="210" width="60" height="30" as="geometry" />
        </mxCell>
        <mxCell id="tHz8QDxKs_5TUjwtGXgG-19" value="D" style="text;html=1;align=center;verticalAlign=middle;whiteSpace=wrap;rounded=0;" vertex="1" parent="1">
          <mxGeometry x="35" y="290" width="60" height="30" as="geometry" />
        </mxCell>
        <mxCell id="tHz8QDxKs_5TUjwtGXgG-20" value="E" style="text;html=1;align=center;verticalAlign=middle;whiteSpace=wrap;rounded=0;" vertex="1" parent="1">
          <mxGeometry x="105" y="290" width="60" height="30" as="geometry" />
        </mxCell>
        <mxCell id="tHz8QDxKs_5TUjwtGXgG-23" value="前序遍历：根 左子树 右子树" style="text;html=1;align=center;verticalAlign=middle;whiteSpace=wrap;rounded=0;fillColor=#d5e8d4;strokeColor=#82b366;" vertex="1" parent="1">
          <mxGeometry x="290" y="140" width="90" height="40" as="geometry" />
        </mxCell>
        <mxCell id="tHz8QDxKs_5TUjwtGXgG-26" value="A&amp;nbsp; &amp;nbsp;B&amp;nbsp; &amp;nbsp; D&amp;nbsp; &amp;nbsp;NULL&amp;nbsp; NULL&amp;nbsp; E&amp;nbsp; NULL&amp;nbsp; C&amp;nbsp; NULL NULL" style="text;html=1;align=center;verticalAlign=middle;whiteSpace=wrap;rounded=0;fillColor=#d5e8d4;strokeColor=#82b366;" vertex="1" parent="1">
          <mxGeometry x="290" y="180" width="270" height="50" as="geometry" />
        </mxCell>
        <mxCell id="tHz8QDxKs_5TUjwtGXgG-27" value="中序遍历：左子树&amp;nbsp; 根&amp;nbsp; 右子树" style="text;html=1;align=center;verticalAlign=middle;whiteSpace=wrap;rounded=0;fillColor=#d5e8d4;strokeColor=#82b366;" vertex="1" parent="1">
          <mxGeometry x="290" y="280" width="120" height="30" as="geometry" />
        </mxCell>
        <mxCell id="tHz8QDxKs_5TUjwtGXgG-45" value="NULL&amp;nbsp; &amp;nbsp;D&amp;nbsp; &amp;nbsp;NULL&amp;nbsp; &amp;nbsp;B&amp;nbsp; &amp;nbsp;NULL&amp;nbsp; &amp;nbsp;E&amp;nbsp; &amp;nbsp;NULL" style="text;html=1;align=center;verticalAlign=middle;whiteSpace=wrap;rounded=0;fontFamily=Helvetica;fontSize=12;fillColor=#d5e8d4;strokeColor=#82b366;" vertex="1" parent="1">
          <mxGeometry x="290" y="310" width="250" height="30" as="geometry" />
        </mxCell>
        <mxCell id="tHz8QDxKs_5TUjwtGXgG-46" value="A&amp;nbsp; &amp;nbsp; NULL&amp;nbsp; &amp;nbsp;C" style="text;html=1;align=center;verticalAlign=middle;whiteSpace=wrap;rounded=0;fontFamily=Helvetica;fontSize=12;fillColor=#d5e8d4;strokeColor=#82b366;" vertex="1" parent="1">
          <mxGeometry x="520" y="310" width="90" height="30" as="geometry" />
        </mxCell>
        <mxCell id="tHz8QDxKs_5TUjwtGXgG-47" value="NULL" style="text;html=1;align=center;verticalAlign=middle;whiteSpace=wrap;rounded=0;fontFamily=Helvetica;fontSize=12;fillColor=#d5e8d4;strokeColor=#82b366;" vertex="1" parent="1">
          <mxGeometry x="610" y="310" width="60" height="30" as="geometry" />
        </mxCell>
        <mxCell id="tHz8QDxKs_5TUjwtGXgG-48" value="后序遍历：左子树&amp;nbsp; 右子树&amp;nbsp; 根" style="text;html=1;align=center;verticalAlign=middle;whiteSpace=wrap;rounded=0;fontFamily=Helvetica;fontSize=12;fillColor=#d5e8d4;strokeColor=#82b366;" vertex="1" parent="1">
          <mxGeometry x="290" y="400" width="150" height="30" as="geometry" />
        </mxCell>
      </root>
    </mxGraphModel>
  </diagram>
</mxfile>
